<svg width="160" height="160" viewBox="0 0 160 160" fill="none" xmlns="http://www.w3.org/2000/svg">
<path d="M64.5 87H54.5V97L64.5 87Z" fill="#D1F244"/>
<path d="M54.5 51.5C54.5 37.4167 65.9167 26 80 26V26C94.0833 26 105.5 37.4167 105.5 51.5V66.6667C105.5 77.8965 96.3965 87 85.1667 87H54.5V51.5Z" fill="#D1F244"/>
<path d="M89.7032 65.7803C90.846 65.7803 91.791 66.7138 91.5898 67.8387C91.442 68.6646 91.2054 69.4741 90.8828 70.2529C90.2955 71.6709 89.4346 72.9593 88.3493 74.0446C87.264 75.1299 85.9756 75.9908 84.5576 76.5781C83.1396 77.1655 81.6198 77.4678 80.085 77.4678C78.5501 77.4678 77.0303 77.1655 75.6123 76.5781C74.1944 75.9908 72.9059 75.1299 71.8206 74.0446C70.7354 72.9593 69.8745 71.6709 69.2871 70.2529C68.9645 69.4741 68.7279 68.6646 68.5802 67.8387C68.3789 66.7138 69.3239 65.7803 70.4667 65.7803V65.7803C71.6095 65.7803 72.5084 66.7236 72.8177 67.8237C72.8984 68.1105 72.9961 68.3928 73.1105 68.6692C73.4899 69.5851 74.046 70.4173 74.747 71.1183C75.448 71.8193 76.2802 72.3753 77.1961 72.7547C78.112 73.1341 79.0936 73.3293 80.085 73.3293C81.0763 73.3293 82.058 73.1341 82.9739 72.7547C83.8898 72.3753 84.722 71.8193 85.4229 71.1183C86.1239 70.4173 86.68 69.5851 87.0594 68.6692C87.1738 68.3928 87.2716 68.1105 87.3522 67.8237C87.6615 66.7236 88.5604 65.7803 89.7032 65.7803V65.7803Z" fill="black"/>
<path d="M74.7538 46.6211H76.5949L77.3314 46.9893L78.0679 48.8305L79.5408 53.8016L79.909 55.8269H80.2773L80.8296 53.8016L82.4866 48.4622L83.2231 46.9893L83.4072 46.8052H86.9054L87.4578 46.9893L87.2736 48.2781L84.696 56.1951L83.4072 59.8774L82.6708 61.1662L82.3025 61.3503L79.5408 61.5345L77.8838 61.3503L77.1473 60.6139L76.0426 57.8521L73.2809 49.5669L72.7285 47.1734L73.465 46.8052L74.7538 46.6211Z" fill="black"/>
<path d="M28.8105 135.241C27.3125 135.241 26.4238 134.581 25.8652 133.02L20.7617 119.321C20.6348 118.966 20.5713 118.61 20.5713 118.242C20.5713 117.163 21.3838 116.427 22.5898 116.427C23.6182 116.427 24.2275 116.896 24.5449 117.938L28.8359 131.052H28.9248L33.2031 117.899C33.5205 116.871 34.0918 116.427 35.0947 116.427C36.2627 116.427 37.0625 117.15 37.0625 118.191C37.0625 118.534 36.999 118.877 36.8721 119.22L31.7432 133.032C31.1846 134.581 30.2959 135.241 28.8105 135.241ZM42.3869 135.241C41.1809 135.241 40.4699 134.505 40.4699 133.248V118.433C40.4699 117.163 41.1809 116.427 42.3869 116.427C43.593 116.427 44.3039 117.163 44.3039 118.433V133.248C44.3039 134.505 43.593 135.241 42.3869 135.241ZM50.5678 135C49.3617 135 48.6508 134.264 48.6508 132.994V118.674C48.6508 117.417 49.3617 116.681 50.5678 116.681H55.6459C61.143 116.681 64.3803 119.956 64.3803 125.771C64.3803 131.585 61.143 135 55.6459 135H50.5678ZM52.4848 131.826H55.1889C58.6166 131.826 60.4701 129.744 60.4701 125.783C60.4701 121.949 58.5658 119.842 55.1889 119.842H52.4848V131.826ZM69.8697 135.241C68.7906 135.241 68.1559 134.581 68.1559 133.451V118.902C68.1559 117.354 69.0699 116.427 70.6314 116.427C71.9645 116.427 72.7008 116.985 73.2594 118.407L77.8043 129.668H77.9059L82.4381 118.407C82.9967 116.998 83.7457 116.427 85.0914 116.427C86.6402 116.427 87.5543 117.341 87.5543 118.902V133.451C87.5543 134.581 86.9195 135.241 85.8404 135.241C84.7613 135.241 84.1393 134.581 84.1393 133.451V122.635H84.0377L79.5055 133.718C79.1754 134.53 78.6676 134.886 77.8678 134.886C77.0553 134.886 76.5221 134.518 76.2047 133.73L71.6725 122.635H71.5709V133.451C71.5709 134.581 70.9488 135.241 69.8697 135.241ZM93.8182 135C92.6121 135 91.9012 134.264 91.9012 132.994V118.674C91.9012 117.417 92.6121 116.681 93.8182 116.681H102.527C103.581 116.681 104.266 117.277 104.266 118.268C104.266 119.258 103.568 119.854 102.527 119.854H95.7352V124.26H102.197C103.149 124.26 103.797 124.818 103.797 125.732C103.797 126.646 103.162 127.205 102.197 127.205H95.7352V131.826H102.527C103.568 131.826 104.266 132.423 104.266 133.413C104.266 134.403 103.581 135 102.527 135H93.8182ZM110.022 135C108.816 135 108.105 134.264 108.105 132.994V118.674C108.105 117.417 108.816 116.681 110.022 116.681H118.731C119.785 116.681 120.471 117.277 120.471 118.268C120.471 119.258 119.772 119.854 118.731 119.854H111.939V124.26H118.401C119.354 124.26 120.001 124.818 120.001 125.732C120.001 126.646 119.366 127.205 118.401 127.205H111.939V131.826H118.731C119.772 131.826 120.471 132.423 120.471 133.413C120.471 134.403 119.785 135 118.731 135H110.022ZM130.607 135.241C129.401 135.241 128.69 134.505 128.69 133.248V119.854H124.906C123.865 119.854 123.167 119.258 123.167 118.268C123.167 117.277 123.853 116.681 124.906 116.681H136.32C137.361 116.681 138.046 117.277 138.046 118.268C138.046 119.258 137.348 119.854 136.32 119.854H132.524V133.248C132.524 134.505 131.813 135.241 130.607 135.241Z" fill="#D1F244"/>
</svg>
