<svg width="160" height="160" viewBox="0 0 160 160" fill="none" xmlns="http://www.w3.org/2000/svg">
<path d="M61.7647 109.765H50V121.529L61.7647 109.765Z" fill="black"/>
<path d="M50 68C50 51.4315 63.4315 38 80 38V38C96.5685 38 110 51.4315 110 68V85.8431C110 99.0546 99.29 109.765 86.0784 109.765H50V68Z" fill="black"/>
<path d="M91.4155 84.8003C92.7599 84.8003 93.8717 85.8985 93.6349 87.222C93.4611 88.1936 93.1827 89.1459 92.8032 90.0622C92.1122 91.7304 91.0994 93.2462 89.8226 94.523C88.5458 95.7998 87.03 96.8126 85.3618 97.5036C83.6935 98.1946 81.9055 98.5503 80.0999 98.5503C78.2942 98.5503 76.5062 98.1946 74.838 97.5036C73.1697 96.8126 71.6539 95.7998 70.3771 94.523C69.1003 93.2462 68.0875 91.7304 67.3965 90.0622C67.017 89.1459 66.7386 88.1936 66.5648 87.222C66.328 85.8985 67.4398 84.8003 68.7842 84.8003V84.8003C70.1287 84.8003 71.1862 85.91 71.5502 87.2043C71.645 87.5417 71.76 87.8739 71.8947 88.199C72.341 89.2765 72.9952 90.2556 73.8199 91.0803C74.6446 91.905 75.6236 92.5592 76.7011 93.0055C77.7787 93.4518 78.9336 93.6815 80.0999 93.6815C81.2662 93.6815 82.421 93.4518 83.4986 93.0055C84.5761 92.5592 85.5551 91.905 86.3798 91.0803C87.2045 90.2556 87.8587 89.2765 88.305 88.199C88.4397 87.8739 88.5547 87.5417 88.6495 87.2043C89.0135 85.91 90.071 84.8003 91.4155 84.8003V84.8003Z" fill="#D1F244"/>
<path d="M73.828 62.2603H75.994L76.8605 62.6935L77.7269 64.8595L79.4598 70.7079L79.893 73.0906H80.3262L80.976 70.7079L82.9255 64.4263L83.7919 62.6935L84.0085 62.4769H88.124L88.7738 62.6935L88.5572 64.2097L85.5247 73.5238L84.0085 77.8559L83.1421 79.3722L82.7089 79.5888L79.4598 79.8054L77.5103 79.5888L76.6439 78.7223L75.3442 75.4733L72.0951 65.726L71.4453 62.9101L72.3117 62.4769L73.828 62.2603Z" fill="#D1F244"/>
</svg>
